<svg width="76" height="29" viewBox="0 0 76 29" fill="none" xmlns="http://www.w3.org/2000/svg">
<path d="M20.22 29V24.68H12.5V0.599998H8.78C8.18 3.84 6.54 5.44 2.74 5.6V9.16H7.94V24.68H0.0200001V29H20.22ZM38.0697 29C46.6697 29 51.0697 26.68 51.0697 21V20.96C51.0697 17.04 48.9897 15.2 44.8297 14.44C48.5497 13.6 50.3897 11.72 50.3897 8V7.92C50.3897 2.72 46.5097 0.559999 37.9897 0.559999H24.6297V29H38.0697ZM38.1897 4.24C43.6297 4.24 45.9497 5.24 45.9497 8.36V8.4C45.9497 11.8 42.9897 12.68 38.2697 12.68H29.0297V4.24H38.1897ZM37.9097 16.28C43.7497 16.28 46.4697 17.16 46.4697 20.68V20.72C46.4697 24 44.1097 25.12 37.5497 25.12H29.0297V16.28H37.9097ZM75.0341 16.72V12.68H66.8341V4.92H62.8341V12.68H54.8341V16.72H62.8341V24.56H66.8341V16.72H75.0341Z" fill="#F7F5F2"/>
</svg>
