<svg width="152" height="30" viewBox="0 0 152 30" fill="none" xmlns="http://www.w3.org/2000/svg">
<path d="M28.28 20.12C28.28 13.88 23.6 11 16.56 11C10.76 11 6.32 13.64 4.72 17.08C4.68 16.52 4.64 15.92 4.64 15.28V14.56C4.64 7.56 8.16 3.88 15.16 3.88C19.92 3.92 22.12 5.4 22.96 7.96H28C26.72 2.76 22.24 -9.53674e-07 15.24 -9.53674e-07C5.64 -9.53674e-07 0.16 5 0.16 14.64V15.44C0.16 24.88 4.8 29.68 14.84 29.68C23.32 29.72 28.28 25.84 28.28 20.12ZM14.8 25.6C9.52 25.6 6.56 23.96 5.32 20.32C6.56 16.96 10.44 14.72 15.28 14.72C20.44 14.72 23.56 16.12 23.56 20.08C23.56 23.56 20.72 25.6 14.8 25.6ZM46.6694 29.68C55.3494 29.68 61.5494 24.96 61.5494 15.44V14.52C61.5494 5.12 55.3494 -9.53674e-07 46.6694 -9.53674e-07C37.8694 -9.53674e-07 31.9094 5.24 31.9094 14.56V15.4C31.9094 25.08 37.7494 29.68 46.6694 29.68ZM46.6694 25.56C40.3494 25.56 36.5894 22.16 36.5894 15.36V14.68C36.5894 7.68 40.2694 4.08 46.6694 4.08C53.0294 4.08 56.8694 7.6 56.8694 14.68V15.36C56.8694 22.44 52.8694 25.56 46.6694 25.56ZM80.9569 29.68C89.6369 29.68 95.8369 24.96 95.8369 15.44V14.52C95.8369 5.12 89.6369 -9.53674e-07 80.9569 -9.53674e-07C72.1569 -9.53674e-07 66.1969 5.24 66.1969 14.56V15.4C66.1969 25.08 72.0369 29.68 80.9569 29.68ZM80.9569 25.56C74.6369 25.56 70.8769 22.16 70.8769 15.36V14.68C70.8769 7.68 74.5569 4.08 80.9569 4.08C87.3169 4.08 91.1569 7.6 91.1569 14.68V15.36C91.1569 22.44 87.1569 25.56 80.9569 25.56ZM123.86 29H129.22L116.78 11.12L128.46 0.559999H122.5L105.78 15.48V0.559999H101.22V29H105.78V20.44L113.46 13.72L123.86 29ZM151.937 16.72V12.68H143.737V4.92H139.737V12.68H131.737V16.72H139.737V24.56H143.737V16.72H151.937Z" fill="#F7F5F2"/>
</svg>
