<svg width="93" height="30" viewBox="0 0 93 30" fill="none" xmlns="http://www.w3.org/2000/svg">
<path d="M13.72 29.68C22.12 29.68 27.44 26.16 27.44 19.44C27.44 12.76 22.72 9.68 15.72 9.68C10.84 9.68 7.36 11.32 5.24 13.48C5.64 10.96 6.24 7 6.6 4.56H20.52C25.08 4.56 25.96 4.12 25.96 0.639998V0.559999H3.16L0.8 16.04L4.92 17.4C4.96 17.36 5.44 17 5.44 17C7.24 15.08 10.36 13.36 14.96 13.36C19.44 13.36 22.8 15.08 22.8 19.4C22.8 23.72 19.44 25.68 13.96 25.68C8.48 25.68 5.48 23.72 5.32 20.28V20.2H0.4V20.24C0.64 26.16 4.76 29.68 13.72 29.68ZM59.2472 20.12C59.2472 13.88 54.5672 11 47.5272 11C41.7272 11 37.2872 13.64 35.6872 17.08C35.6472 16.52 35.6072 15.92 35.6072 15.28V14.56C35.6072 7.56 39.1272 3.88 46.1272 3.88C50.8872 3.92 53.0872 5.4 53.9272 7.96H58.9672C57.6872 2.76 53.2072 -9.53674e-07 46.2072 -9.53674e-07C36.6072 -9.53674e-07 31.1272 5 31.1272 14.64V15.44C31.1272 24.88 35.7672 29.68 45.8072 29.68C54.2872 29.72 59.2472 25.84 59.2472 20.12ZM45.7672 25.6C40.4872 25.6 37.5272 23.96 36.2872 20.32C37.5272 16.96 41.4072 14.72 46.2472 14.72C51.4072 14.72 54.5272 16.12 54.5272 20.08C54.5272 23.56 51.6872 25.6 45.7672 25.6ZM68.8319 12.76C73.0319 12.76 75.6319 10.36 75.6319 6.56V6.48C75.6319 2.64 72.9519 0.199999 68.9519 0.199999C65.0319 0.199999 62.1519 2.64 62.1519 6.48V6.56C62.1519 10.44 64.6319 12.76 68.8319 12.76ZM61.8719 29H67.3919C68.3519 27.76 91.7119 1.88 92.7519 0.559999H87.5119C86.5519 1.84 62.9119 27.72 61.8719 29ZM68.8319 9.8C66.7919 9.8 65.5119 8.64 65.5119 6.52V6.48C65.5119 4.36 66.8719 3.2 68.8719 3.2C70.9119 3.2 72.2719 4.44 72.2719 6.48V6.52C72.2719 8.56 70.9119 9.8 68.8319 9.8ZM85.6319 29.52C89.8319 29.52 92.3919 27.12 92.3919 23.32V23.24C92.3919 19.4 89.7119 16.96 85.7119 16.96C81.7919 16.96 78.9919 19.4 78.9919 23.24V23.32C78.9919 27.24 81.3919 29.52 85.6319 29.52ZM85.6719 26.56C83.5519 26.56 82.2719 25.4 82.2719 23.28V23.24C82.2719 21.08 83.6719 19.96 85.6719 19.96C87.7119 19.96 89.0719 21.2 89.0719 23.24V23.28C89.0719 25.32 87.7119 26.56 85.6719 26.56Z" fill="#F7F5F2"/>
</svg>
