<svg width="104" height="30" viewBox="0 0 104 30" fill="none" xmlns="http://www.w3.org/2000/svg">
<path d="M18.9 18.36H5.74L18.9 6.08V18.36ZM29.5 22.16V18.36H23.5V0.559999H19.54L0.06 18.96V22.16H18.9V29H23.5V22.16H29.5ZM36.2478 29.52C38.4478 29.52 39.6078 28.6 39.6078 26.36C39.6078 24.04 38.4478 23.12 36.2478 23.12C34.0878 23.12 32.8478 24.04 32.8478 26.32C32.8478 28.68 33.8478 29.52 36.2478 29.52ZM58.2481 29.68C66.6481 29.68 71.9681 26.16 71.9681 19.44C71.9681 12.76 67.2481 9.68 60.2481 9.68C55.3681 9.68 51.8881 11.32 49.7681 13.48C50.1681 10.96 50.7681 7 51.1281 4.56H65.0481C69.6081 4.56 70.4881 4.12 70.4881 0.639998V0.559999H47.6881L45.3281 16.04L49.4481 17.4C49.4881 17.36 49.9681 17 49.9681 17C51.7681 15.08 54.8881 13.36 59.4881 13.36C63.9681 13.36 67.3281 15.08 67.3281 19.4C67.3281 23.72 63.9681 25.68 58.4881 25.68C53.0081 25.68 50.0081 23.72 49.8481 20.28V20.2H44.9281V20.24C45.1681 26.16 49.2881 29.68 58.2481 29.68ZM90.6134 29C99.2134 29 103.613 26.68 103.613 21V20.96C103.613 17.04 101.533 15.2 97.3734 14.44C101.093 13.6 102.933 11.72 102.933 8V7.92C102.933 2.72 99.0534 0.559999 90.5334 0.559999H77.1734V29H90.6134ZM90.7334 4.24C96.1734 4.24 98.4934 5.24 98.4934 8.36V8.4C98.4934 11.8 95.5334 12.68 90.8134 12.68H81.5734V4.24H90.7334ZM90.4534 16.28C96.2934 16.28 99.0134 17.16 99.0134 20.68V20.72C99.0134 24 96.6534 25.12 90.0934 25.12H81.5734V16.28H90.4534Z" fill="#F7F5F2"/>
</svg>
